<svg width="28" height="28" viewBox="0 0 28 28" fill="none" xmlns="http://www.w3.org/2000/svg">
<circle cx="13.9999" cy="14" r="12.5106" fill="#752CE8"/>
<path d="M11.8182 7.57081C11.869 7.57192 11.9235 7.57582 11.9764 7.5856L11.9767 7.58531C12.2513 7.63209 12.4955 7.81025 12.6292 8.05257L12.6504 8.0934C12.7512 8.29919 12.7731 8.54137 12.7111 8.76189L12.7114 8.76218C12.6068 9.15015 12.2378 9.44273 11.8341 9.44487H11.8335C11.1705 9.44585 10.5064 9.44477 9.84367 9.44516C9.68246 9.44621 9.54929 9.43982 9.414 9.46026L9.41135 9.46055C9.07876 9.50475 8.76101 9.66107 8.52519 9.89999L8.52342 9.90177C8.22936 10.1908 8.05311 10.6002 8.04542 11.0138C8.04015 11.2763 8.10358 11.5405 8.22401 11.7749L8.27912 11.8735L8.28088 11.8764C8.63835 12.4992 8.99563 13.1222 9.3527 13.7452L9.37893 13.7937C9.50143 14.0398 9.50707 14.3387 9.39485 14.5891L9.39514 14.5894C9.31609 14.7717 9.17746 14.9242 9.0082 15.0224L9.00791 15.0221C8.75739 15.1697 8.43998 15.1872 8.17479 15.0697C7.98918 14.9899 7.83182 14.8486 7.73304 14.6708C7.35793 14.016 6.97976 13.361 6.60611 12.7041L6.60493 12.7021C6.29706 12.1396 6.14641 11.4888 6.18587 10.8458C6.23158 10.045 6.56472 9.26729 7.10533 8.67962C7.64872 8.08025 8.40955 7.68804 9.21095 7.59567C9.34238 7.58014 9.4751 7.57163 9.60791 7.57081H11.8182Z" fill="white"/>
<path d="M17.9831 7.57097C18.2524 7.57248 18.5507 7.55994 18.8422 7.60411L18.8419 7.60441C19.5117 7.69509 20.1522 7.9925 20.6534 8.44985C21.255 8.99206 21.6593 9.75022 21.7738 10.5553L21.7918 10.6974C21.8662 11.4085 21.7076 12.1387 21.3542 12.757C20.9878 13.3957 20.6212 14.0351 20.2544 14.6739C20.1362 14.8854 19.9341 15.0442 19.703 15.1101L19.7033 15.1104L19.7018 15.1107L19.7012 15.111L19.7009 15.1107C19.4234 15.1928 19.116 15.1327 18.8872 14.9607C18.5278 14.698 18.4062 14.1721 18.6188 13.7773L18.6205 13.774C18.9455 13.205 19.2732 12.6362 19.5986 12.0681C19.6946 11.8981 19.7842 11.7592 19.8424 11.6011L19.843 11.5993C19.9662 11.2776 19.9764 10.9128 19.8751 10.5822L19.8748 10.5814C19.7753 10.2501 19.5657 9.95254 19.2883 9.74805C19.0257 9.55329 18.6985 9.4466 18.3712 9.44532H16.1675C15.9199 9.44462 15.6752 9.33898 15.5044 9.15799C15.2943 8.9422 15.2016 8.62359 15.2607 8.32823C15.3259 7.97122 15.6132 7.67444 15.9638 7.59523L15.9656 7.59464L15.9665 7.59435C16.0329 7.57861 16.1017 7.57279 16.166 7.57097H17.9831Z" fill="white"/>
<path d="M12.1095 12.2218C12.2835 12.1834 12.4669 12.2234 12.6128 12.3144C12.7591 12.4056 12.8773 12.5542 12.9081 12.7408L12.909 12.7449L12.9093 12.7488C12.9279 12.9388 12.9273 13.128 12.9246 13.3116C12.9218 13.4972 12.917 13.6757 12.9252 13.854C12.9285 13.9072 12.9275 13.9328 12.9314 13.9748C12.9347 14.0099 12.9404 14.036 12.9502 14.0573L12.9505 14.0579C12.9869 14.1376 13.0744 14.194 13.1615 14.1941H13.1639C13.7274 14.2038 14.2854 14.1929 14.8537 14.1949C14.9572 14.188 15.0507 14.1018 15.0615 14.0073L15.0617 14.005L15.0623 14.0023C15.0946 13.7982 15.0892 13.5904 15.0833 13.3696C15.0774 13.1526 15.0708 12.9225 15.1074 12.6926L15.108 12.6884L15.1089 12.6846C15.1761 12.3895 15.4667 12.2205 15.7278 12.2102C15.7281 12.2102 15.7286 12.2099 15.7289 12.2099C15.7302 12.2099 15.7315 12.2097 15.7328 12.2096C16.0283 12.1904 16.3257 12.3983 16.3938 12.6967C16.4292 12.8448 16.4267 13.0012 16.423 13.1397L16.42 13.2714C16.4195 13.5575 16.4413 13.8771 16.3876 14.1861L16.3873 14.1864C16.3177 14.5826 16.1067 14.9567 15.79 15.2099C15.5693 15.3866 15.2907 15.5051 14.9975 15.5091C14.3913 15.5172 13.7851 15.5142 13.1804 15.5115H13.1774C13.0295 15.5075 12.8301 15.5217 12.6482 15.4624C12.2346 15.3386 11.9203 15.004 11.7508 14.6305C11.6491 14.4138 11.6026 14.1789 11.5864 13.9502C11.5735 13.7671 11.5767 13.5845 11.5805 13.4078C11.5843 13.2293 11.5885 13.0568 11.5796 12.8852V12.8828C11.5696 12.5628 11.8149 12.2862 12.1095 12.2218Z" fill="white"/>
<path d="M10.5936 17.0827C10.9556 17.0285 11.3384 17.2075 11.5234 17.5295C11.8597 18.1143 12.1951 18.6996 12.5307 19.2846L12.6259 19.4503C12.656 19.5018 12.6863 19.55 12.7211 19.5968L12.722 19.598C12.8781 19.8121 13.089 19.9853 13.3282 20.0954L13.4322 20.1389L13.4331 20.1392C13.7939 20.2757 14.2046 20.2749 14.5641 20.1363L14.5656 20.1357C14.8898 20.0147 15.1693 19.7748 15.3495 19.4746C15.7213 18.8283 16.0919 18.1814 16.4629 17.5345C16.6723 17.1663 17.1393 16.9841 17.5409 17.1146L17.5406 17.1149C17.7958 17.1937 18.0125 17.3872 18.1188 17.6343C18.2362 17.9009 18.2209 18.2214 18.0746 18.4753C17.7005 19.1266 17.3269 19.7795 16.9521 20.431L16.9512 20.4325C16.5859 21.0525 16.0238 21.5531 15.3625 21.8351C14.5361 22.1923 13.5736 22.2082 12.7358 21.8801C12.0682 21.6223 11.4911 21.1439 11.1052 20.5405L11.1041 20.5387C10.96 20.3062 10.8248 20.0555 10.6915 19.8285L10.6906 19.827C10.4548 19.4148 10.2193 19.0058 9.98302 18.5931L9.98273 18.5928C9.94378 18.5244 9.87908 18.4252 9.84392 18.317L9.84422 18.3167C9.76021 18.0765 9.78023 17.8036 9.89874 17.5786C10.033 17.3101 10.302 17.1237 10.5936 17.0827Z" fill="white"/>
<path fill-rule="evenodd" clip-rule="evenodd" d="M14 0C21.732 0 28 6.26801 28 14C28 21.732 21.732 28 14 28C6.26801 28 0 21.732 0 14C0 6.26801 6.26801 0 14 0ZM14 1.78723C7.25508 1.78723 1.78723 7.25508 1.78723 14C1.78723 20.7449 7.25508 26.2128 14 26.2128C20.7449 26.2128 26.2128 20.7449 26.2128 14C26.2128 7.25508 20.7449 1.78723 14 1.78723Z" fill="white"/>
</svg>
